<svg width="22" height="15" viewBox="0 0 22 15" fill="none" xmlns="http://www.w3.org/2000/svg">
<path d="M21 7.5C21 7.5 16.5228 14.5 11 14.5C5.47715 14.5 1 7.5 1 7.5C1 7.5 5.47715 0.5 11 0.5C16.5228 0.5 21 7.5 21 7.5Z" stroke="#1D1D1A" stroke-linecap="round"/>
<path d="M21 7.5C21 7.5 16.5228 14.5 11 14.5C5.47715 14.5 1 7.5 1 7.5C1 7.5 5.47715 0.5 11 0.5C16.5228 0.5 21 7.5 21 7.5Z" stroke="black" stroke-opacity="0.2" stroke-linecap="round"/>
<path d="M21 7.5C21 7.5 16.5228 14.5 11 14.5C5.47715 14.5 1 7.5 1 7.5C1 7.5 5.47715 0.5 11 0.5C16.5228 0.5 21 7.5 21 7.5Z" stroke="black" stroke-opacity="0.2" stroke-linecap="round"/>
<path d="M21 7.5C21 7.5 16.5228 14.5 11 14.5C5.47715 14.5 1 7.5 1 7.5C1 7.5 5.47715 0.5 11 0.5C16.5228 0.5 21 7.5 21 7.5Z" stroke="black" stroke-opacity="0.2" stroke-linecap="round"/>
<path d="M21 7.5C21 7.5 16.5228 14.5 11 14.5C5.47715 14.5 1 7.5 1 7.5C1 7.5 5.47715 0.5 11 0.5C16.5228 0.5 21 7.5 21 7.5Z" stroke="black" stroke-opacity="0.2" stroke-linecap="round"/>
<path d="M21 7.5C21 7.5 16.5228 14.5 11 14.5C5.47715 14.5 1 7.5 1 7.5C1 7.5 5.47715 0.5 11 0.5C16.5228 0.5 21 7.5 21 7.5Z" stroke="black" stroke-opacity="0.2" stroke-linecap="round"/>
<path d="M21 7.5C21 7.5 16.5228 14.5 11 14.5C5.47715 14.5 1 7.5 1 7.5C1 7.5 5.47715 0.5 11 0.5C16.5228 0.5 21 7.5 21 7.5Z" stroke="black" stroke-opacity="0.2" stroke-linecap="round"/>
<path d="M21 7.5C21 7.5 16.5228 14.5 11 14.5C5.47715 14.5 1 7.5 1 7.5C1 7.5 5.47715 0.5 11 0.5C16.5228 0.5 21 7.5 21 7.5Z" stroke="black" stroke-opacity="0.2" stroke-linecap="round"/>
<path d="M21 7.5C21 7.5 16.5228 14.5 11 14.5C5.47715 14.5 1 7.5 1 7.5C1 7.5 5.47715 0.5 11 0.5C16.5228 0.5 21 7.5 21 7.5Z" stroke="black" stroke-opacity="0.2" stroke-linecap="round"/>
<path d="M21 7.5C21 7.5 16.5228 14.5 11 14.5C5.47715 14.5 1 7.5 1 7.5C1 7.5 5.47715 0.5 11 0.5C16.5228 0.5 21 7.5 21 7.5Z" stroke="black" stroke-opacity="0.2" stroke-linecap="round"/>
<path d="M21 7.5C21 7.5 16.5228 14.5 11 14.5C5.47715 14.5 1 7.5 1 7.5C1 7.5 5.47715 0.5 11 0.5C16.5228 0.5 21 7.5 21 7.5Z" stroke="black" stroke-opacity="0.2" stroke-linecap="round"/>
<path d="M21 7.5C21 7.5 16.5228 14.5 11 14.5C5.47715 14.5 1 7.5 1 7.5C1 7.5 5.47715 0.5 11 0.5C16.5228 0.5 21 7.5 21 7.5Z" stroke="black" stroke-opacity="0.2" stroke-linecap="round"/>
<path d="M21 7.5C21 7.5 16.5228 14.5 11 14.5C5.47715 14.5 1 7.5 1 7.5C1 7.5 5.47715 0.5 11 0.5C16.5228 0.5 21 7.5 21 7.5Z" stroke="black" stroke-opacity="0.2" stroke-linecap="round"/>
<path d="M21 7.5C21 7.5 16.5228 14.5 11 14.5C5.47715 14.5 1 7.5 1 7.5C1 7.5 5.47715 0.5 11 0.5C16.5228 0.5 21 7.5 21 7.5Z" stroke="black" stroke-opacity="0.2" stroke-linecap="round"/>
<path d="M15 7.5C15 9.70914 13.2091 11.5 11 11.5C8.79086 11.5 7 9.70914 7 7.5C7 5.29086 8.79086 3.5 11 3.5C13.2091 3.5 15 5.29086 15 7.5Z" stroke="#1D1D1A" stroke-linecap="round"/>
<path d="M15 7.5C15 9.70914 13.2091 11.5 11 11.5C8.79086 11.5 7 9.70914 7 7.5C7 5.29086 8.79086 3.5 11 3.5C13.2091 3.5 15 5.29086 15 7.5Z" stroke="black" stroke-opacity="0.2" stroke-linecap="round"/>
<path d="M15 7.5C15 9.70914 13.2091 11.5 11 11.5C8.79086 11.5 7 9.70914 7 7.5C7 5.29086 8.79086 3.5 11 3.5C13.2091 3.5 15 5.29086 15 7.5Z" stroke="black" stroke-opacity="0.2" stroke-linecap="round"/>
<path d="M15 7.5C15 9.70914 13.2091 11.5 11 11.5C8.79086 11.5 7 9.70914 7 7.5C7 5.29086 8.79086 3.5 11 3.5C13.2091 3.5 15 5.29086 15 7.5Z" stroke="black" stroke-opacity="0.2" stroke-linecap="round"/>
<path d="M15 7.5C15 9.70914 13.2091 11.5 11 11.5C8.79086 11.5 7 9.70914 7 7.5C7 5.29086 8.79086 3.5 11 3.5C13.2091 3.5 15 5.29086 15 7.5Z" stroke="black" stroke-opacity="0.2" stroke-linecap="round"/>
<path d="M15 7.5C15 9.70914 13.2091 11.5 11 11.5C8.79086 11.5 7 9.70914 7 7.5C7 5.29086 8.79086 3.5 11 3.5C13.2091 3.5 15 5.29086 15 7.5Z" stroke="black" stroke-opacity="0.2" stroke-linecap="round"/>
<path d="M15 7.5C15 9.70914 13.2091 11.5 11 11.5C8.79086 11.5 7 9.70914 7 7.5C7 5.29086 8.79086 3.5 11 3.5C13.2091 3.5 15 5.29086 15 7.5Z" stroke="black" stroke-opacity="0.2" stroke-linecap="round"/>
<path d="M15 7.5C15 9.70914 13.2091 11.5 11 11.5C8.79086 11.5 7 9.70914 7 7.5C7 5.29086 8.79086 3.5 11 3.5C13.2091 3.5 15 5.29086 15 7.5Z" stroke="black" stroke-opacity="0.2" stroke-linecap="round"/>
<path d="M15 7.5C15 9.70914 13.2091 11.5 11 11.5C8.79086 11.5 7 9.70914 7 7.5C7 5.29086 8.79086 3.5 11 3.5C13.2091 3.5 15 5.29086 15 7.5Z" stroke="black" stroke-opacity="0.2" stroke-linecap="round"/>
<path d="M15 7.5C15 9.70914 13.2091 11.5 11 11.5C8.79086 11.5 7 9.70914 7 7.5C7 5.29086 8.79086 3.5 11 3.5C13.2091 3.5 15 5.29086 15 7.5Z" stroke="black" stroke-opacity="0.2" stroke-linecap="round"/>
<path d="M15 7.5C15 9.70914 13.2091 11.5 11 11.5C8.79086 11.5 7 9.70914 7 7.5C7 5.29086 8.79086 3.5 11 3.5C13.2091 3.5 15 5.29086 15 7.5Z" stroke="black" stroke-opacity="0.2" stroke-linecap="round"/>
<path d="M15 7.5C15 9.70914 13.2091 11.5 11 11.5C8.79086 11.5 7 9.70914 7 7.5C7 5.29086 8.79086 3.5 11 3.5C13.2091 3.5 15 5.29086 15 7.5Z" stroke="black" stroke-opacity="0.2" stroke-linecap="round"/>
<path d="M15 7.5C15 9.70914 13.2091 11.5 11 11.5C8.79086 11.5 7 9.70914 7 7.5C7 5.29086 8.79086 3.5 11 3.5C13.2091 3.5 15 5.29086 15 7.5Z" stroke="black" stroke-opacity="0.2" stroke-linecap="round"/>
<path d="M15 7.5C15 9.70914 13.2091 11.5 11 11.5C8.79086 11.5 7 9.70914 7 7.5C7 5.29086 8.79086 3.5 11 3.5C13.2091 3.5 15 5.29086 15 7.5Z" stroke="black" stroke-opacity="0.2" stroke-linecap="round"/>
</svg>
