<svg width="22" height="16" viewBox="0 0 22 16" fill="none" xmlns="http://www.w3.org/2000/svg">
<path d="M18.3784 11.1964C20.0066 9.55323 21 8 21 8C21 8 16.5228 1 11 1C10.1743 1 9.37203 1.15645 8.60456 1.42258M4.06066 1L18.5563 15.4957M1 8C1 8 2.93788 4.97014 5.83647 2.89713L16.0926 13.1533C14.601 14.2062 12.8598 15 11 15C5.47715 15 1 8 1 8ZM11 12C8.79086 12 7 10.2091 7 7.99995C7 6.9855 7.37764 6.05926 8 5.35413L13.8604 10.7961C13.1341 11.5389 12.1209 12 11 12Z" stroke="#777776" stroke-linecap="round"/>
</svg>
